<?xml version="1.0" encoding="UTF-8"?>
<svg id="Layer_1" data-name="Layer 1" xmlns="http://www.w3.org/2000/svg" viewBox="0 0 991.62 510.61">
  <defs>
    <style>
      .cls-1 {
        fill: #e95535;
        stroke-width: 0px;
      }
    </style>
  </defs>
  <g>
    <path class="cls-1" d="m30.69,274.01c-4.9-2.53-9.49-5.7-13.61-9.65C5.7,252.97,0,239.99,0,225.6,0,216.9,1.58,208.83,4.59,201.71c5.22-12.18,14.4-21.2,27.37-26.74,8.07-3.32,16.61-5.06,25.31-5.06,11.07,0,20.41,2.53,28,7.75,6.49,4.59,9.81,10.44,9.81,17.88,0,5.06-1.74,9.33-5.06,12.66s-7.59,5.22-12.34,5.22-8.38-1.74-11.71-5.06-5.06-7.28-5.06-11.71c0-3.16,1.11-6.49,3.48-9.81,1.9-2.69,3.8-4.27,5.85-5.06-20.72,2.53-31.01,13.13-31.01,31.64v10.44c0,11.87,1.11,20.72,3.16,26.74,4.43,12.18,13.61,18.19,27.53,18.19,8.07,0,15.82-3.01,23.26-9.02,5.22-4.59,9.65-10.12,12.97-16.61,4.59,0,6.8,0,6.8.16-6.17,15.66-17.24,26.74-32.91,33.22-7.12,2.69-14.24,4.11-21.67,4.11-9.65,0-18.83-2.21-27.69-6.64Z"/>
    <path class="cls-1" d="m187.94,280.65c-4.59,0-8.7-1.58-12.5-4.75-3.32-3.16-5.54-6.8-6.33-10.76-.32-1.11-.47-22.62-.47-64.23,0-4.27-.79-7.91-2.53-10.76-1.42-2.21-3.64-3.32-6.33-3.32-6.96,0-13.13,8.38-18.35,25.15v68.66h-38.76V122.45h19.46c4.59,0,8.86,1.58,12.81,4.9,4.27,3.96,6.49,9.02,6.49,14.87v51.73h.16c2.21-4.27,5.22-8.38,9.02-12.34,7.91-7.75,16.45-11.71,25.63-11.71,8.7,0,16.29,3.32,22.78,9.97,5.7,6.17,8.54,13.92,8.54,22.94v77.84h-19.62Z"/>
    <path class="cls-1" d="m224.49,155.83c-4.11-4.11-6.17-8.86-6.17-14.08,0-4.59,1.58-8.86,4.75-12.66,4.27-4.59,9.18-6.8,14.71-6.8,4.27,0,8.23,1.27,11.87,3.96,5.06,4.27,7.59,9.33,7.59,15.5,0,4.59-1.58,8.7-4.59,12.34-4.27,4.59-9.18,6.96-14.87,6.96-4.9,0-9.33-1.74-13.29-5.22Zm2.21,115.01c-5.54-6.01-8.38-13.13-8.38-21.36v-79.58h19.46c5.22,0,9.97,2.06,14.08,6.01,1.42,1.74,2.37,3.16,2.85,3.96,1.74,2.69,2.53,6.17,2.53,10.28v59.48c0,9.65,3.01,14.4,8.86,14.4,2.69,0,5.38-1.42,7.75-4.11,3.64-3.96,6.64-9.49,9.18-16.77,4.9,0,7.28,0,7.28.16-3.01,8.86-7.12,16.45-12.34,22.94-8.07,9.65-17.56,14.4-28.32,14.4-8.7,0-16.45-3.32-22.94-9.81Z"/>
    <path class="cls-1" d="m288.88,272.74c-6.96-6.49-10.44-14.4-10.44-23.57v-68.5h-13.45v-10.76h13.45c0-6.96.95-11.87,2.69-14.55,3.32-6.17,11.07-9.18,23.26-9.18h12.81c.16,0,.16,7.91.16,23.73h13.29c.16,0,.16,1.74.16,5.38s0,5.38-.16,5.38h-13.29v68.34c0,9.97,3.01,14.87,8.86,14.87s11.55-6.64,16.61-20.09c.16-.47.16-.63.32-.63h7.28c-5.38,15.66-12.81,26.42-22.46,31.96-5.85,3.64-12.02,5.54-18.19,5.54-7.75,0-14.71-2.69-20.88-7.91Z"/>
    <path class="cls-1" d="m350.1,272.74c-6.96-6.49-10.44-14.4-10.44-23.57v-68.5h-13.45v-10.76h13.45c0-6.96.95-11.87,2.69-14.55,3.32-6.17,11.07-9.18,23.26-9.18h12.81c.16,0,.16,7.91.16,23.73h13.29c.16,0,.16,1.74.16,5.38s0,5.38-.16,5.38h-13.29v68.34c0,9.97,3.01,14.87,8.86,14.87s11.55-6.64,16.61-20.09c.16-.47.16-.63.32-.63h7.28c-5.38,15.66-12.81,26.42-22.46,31.96-5.85,3.64-12.02,5.54-18.19,5.54-7.75,0-14.71-2.69-20.88-7.91Z"/>
    <path class="cls-1" d="m414.33,264.04c-11.23-11.23-16.77-24.21-16.77-39.23,0-9.18,1.74-17.56,5.38-25.31,5.85-11.87,15.19-20.41,28-25.63,6.8-2.69,13.92-3.96,21.04-3.96,11.87,0,21.83,3.32,29.74,10.12,6.96,6.33,10.44,14.24,10.44,23.73,0,8.07-3.8,15.66-11.55,22.78-9.33,7.44-20.09,11.07-32.27,11.07-3.64,0-7.28-.32-11.07-.95,0,.79.32,3.01.79,6.8,1.27,5.85,3.16,10.6,5.54,14.4,5.22,7.28,13.29,10.92,23.89,10.92,8.07,0,15.98-3.01,23.41-9.02,5.38-4.9,9.65-10.44,12.81-16.61h6.96l-.16.16c-4.75,12.02-12.66,21.52-23.57,28.48-9.33,5.85-19.78,8.86-31.01,8.86-15.98,0-29.74-5.54-41.61-16.61Zm37.02-38.44c4.43-4.11,7.28-8.7,8.54-13.92.47-2.06.63-7.44.63-15.98,0-10.6-2.69-15.98-7.91-15.98-3.64,0-7.12,2.69-10.6,8.23-3.16,4.9-4.9,12.5-5.22,22.78v14.71c0,3.64,1.42,5.38,4.27,5.38,2.53,0,6.01-1.74,10.28-5.22Z"/>
    <path class="cls-1" d="m500.08,280.65v-110.74h18.98c6.01,0,11.07,2.21,15.19,6.64,6.17-6.49,13.76-9.65,22.78-9.65,7.12,0,13.76,2.37,19.93,6.96,8.23,6.49,12.34,14.87,12.34,25.15,0,5.38-1.27,10.12-3.8,14.08-2.69,4.11-6.17,6.96-10.76,8.7-2.21.79-4.43,1.27-6.8,1.27-5.06,0-9.49-1.9-13.29-5.85-3.32-3.64-4.9-7.75-4.9-12.34,0-5.22,1.9-9.97,5.7-14.24,4.43-4.59,9.65-6.8,15.66-6.8-3.96-3.64-8.7-5.38-13.92-5.38s-9.97,1.9-13.92,5.54c-2.85,3.01-4.27,5.22-4.27,6.49v70.72c0,5.54-2.21,10.44-6.64,14.55-3.96,3.32-8.07,4.9-12.5,4.9h-19.78Z"/>
    <path class="cls-1" d="m606.55,276.7c-9.81-4.27-14.71-11.07-14.71-20.09,0-5.38,1.58-9.65,4.75-12.97,2.69-2.37,5.85-3.48,9.65-3.48s6.8,1.27,9.81,3.64c3.01,3.01,4.59,6.64,4.59,10.76s-1.42,7.28-4.27,10.28c-3.01,2.69-6.8,4.11-11.39,4.11,2.53,2.21,5.7,3.32,9.49,3.32,3.48,0,6.8-1.11,9.81-3.32,3.96-3.32,6.01-7.59,6.01-12.81,0-4.27-1.27-8.54-3.8-12.81-2.06-3.64-6.17-8.23-12.18-13.76-7.91-7.12-12.81-12.18-14.71-15.19-3.96-5.54-5.85-11.39-5.85-17.56,0-7.28,3.48-13.45,10.6-18.51,8.38-5.54,18.19-8.38,29.74-8.38,7.59,0,14.4,1.27,20.41,3.96,4.59,2.21,7.91,4.75,9.97,7.75,2.37,3.32,3.8,6.49,3.96,9.49h-7.44c-.16,0-.32-.32-.47-1.11-1.74-3.32-4.59-5.85-8.86-7.59-2.53-1.11-5.06-1.58-7.59-1.58-3.32,0-6.33.95-8.7,2.69-3.01,2.37-4.43,5.7-4.43,9.97s1.11,8.23,3.48,12.5,6.64,9.18,12.97,14.71c7.75,7.12,12.81,12.34,15.03,15.66,3.8,5.54,5.7,11.39,5.7,17.4,0,4.59-1.42,8.86-4.43,12.81-1.74,2.69-4.27,4.9-7.59,6.64-7.75,4.9-17.4,7.44-28.95,7.44-7.44,0-14.4-1.27-20.57-3.96Z"/>
  </g>
  <g>
    <path class="cls-1" d="m278.7,294.15v-1.56c0-4.19.89-7.32,2.68-9.37,1.79-2.06,3.92-3.09,6.41-3.09,1.08,0,2.35.17,3.82.51v5.04c-.83-.3-1.62-.45-2.38-.45-2.02,0-3.42.54-4.21,1.61-.79,1.08-1.18,2.99-1.18,5.75v1.56h4.64v4.64h-4.64v21.41h-5.15v-21.41h-3.74v-4.64h3.74Z"/>
    <path class="cls-1" d="m304.5,294.1c3.96,0,7.26,1.28,9.88,3.84,2.62,2.56,3.94,5.77,3.94,9.64s-1.33,6.88-3.99,9.36c-2.66,2.48-6.01,3.72-10.05,3.72s-7.17-1.26-9.8-3.78c-2.62-2.52-3.94-5.67-3.94-9.44s1.33-6.99,3.98-9.53c2.65-2.54,5.98-3.81,9.98-3.81Zm-.28,4.64c-2.47,0-4.5.81-6.09,2.44s-2.38,3.69-2.38,6.2.81,4.53,2.44,6.1c1.62,1.58,3.71,2.37,6.26,2.37s4.6-.8,6.22-2.39c1.62-1.6,2.42-3.64,2.42-6.13s-.84-4.52-2.52-6.15-3.79-2.44-6.34-2.44Z"/>
    <path class="cls-1" d="m329.56,294.15v5.98l.28-.45c2.49-4.02,4.98-6.03,7.48-6.03,1.94,0,3.97.98,6.09,2.95l-2.72,4.53c-1.79-1.7-3.46-2.55-4.98-2.55-1.66,0-3.1.79-4.32,2.38-1.22,1.59-1.83,3.46-1.83,5.64v13.62h-5.18v-26.05h5.18Z"/>
    <path class="cls-1" d="m382.66,314.12v5.1c-2.59.96-5.12,1.44-7.59,1.44-4.08,0-7.33-1.21-9.76-3.62-2.43-2.42-3.64-5.65-3.64-9.71s1.18-7.4,3.54-9.91,5.47-3.77,9.32-3.77c1.34,0,2.54.13,3.61.38,1.07.25,2.38.73,3.95,1.43v5.49c-2.61-1.66-5.02-2.49-7.25-2.49s-4.23.82-5.72,2.45c-1.49,1.63-2.24,3.71-2.24,6.25,0,2.66.81,4.78,2.42,6.34,1.61,1.57,3.79,2.35,6.53,2.35,1.98,0,4.26-.58,6.83-1.73Z"/>
    <path class="cls-1" d="m388.41,280.64h5.15v16.94c2.15-2.62,4.82-3.94,8.01-3.94,1.74,0,3.29.43,4.67,1.3s2.4,2.07,3.07,3.6c.67,1.53,1,3.8,1,6.83v14.84h-5.15v-16.11c0-1.91-.47-3.44-1.4-4.6-.94-1.16-2.17-1.74-3.7-1.74-1.13,0-2.2.29-3.2.88s-2.11,1.56-3.31,2.92v18.66h-5.15v-39.56Z"/>
    <path class="cls-1" d="m420.18,283.19c.85,0,1.58.29,2.18.88s.91,1.3.91,2.15-.3,1.55-.91,2.15-1.33.91-2.18.91c-.79,0-1.49-.31-2.1-.92-.6-.61-.91-1.33-.91-2.14s.3-1.5.91-2.11c.6-.61,1.3-.92,2.1-.92Zm-2.55,10.96h5.15v26.05h-5.15v-26.05Z"/>
    <path class="cls-1" d="m426.58,298.29l9.69-9.52v5.38h8.24v4.64h-8.24v12.75c0,2.98,1.24,4.47,3.71,4.47,1.85,0,3.8-.61,5.86-1.84v4.81c-1.98,1.11-4.14,1.67-6.49,1.67s-4.32-.69-5.89-2.07c-.49-.42-.9-.88-1.22-1.4-.32-.52-.59-1.2-.81-2.04-.22-.84-.33-2.44-.33-4.8v-11.55h-4.53v-.51Z"/>
    <path class="cls-1" d="m448.28,318.34v-5.55c1.45,1.02,2.94,1.85,4.46,2.48,1.52.63,2.8.95,3.84.95s2-.26,2.78-.79,1.16-1.16,1.16-1.9-.25-1.38-.75-1.88-1.58-1.22-3.24-2.17c-3.32-1.85-5.5-3.43-6.53-4.74-1.03-1.31-1.54-2.74-1.54-4.29,0-2,.78-3.63,2.34-4.9,1.56-1.26,3.56-1.9,6.02-1.9s5.16.72,7.84,2.15v5.1c-3.06-1.85-5.56-2.78-7.5-2.78-1,0-1.81.21-2.42.64-.61.43-.92.99-.92,1.69,0,.61.28,1.18.83,1.73s1.53,1.21,2.93,1.98l1.84,1.05c4.34,2.45,6.52,5.17,6.52,8.15,0,2.13-.83,3.88-2.51,5.25-1.67,1.37-3.82,2.05-6.44,2.05-1.55,0-2.93-.17-4.13-.5-1.21-.33-2.73-.94-4.56-1.83Z"/>
    <path class="cls-1" d="m504.35,304.55v11.07c0,.89.3,1.33.91,1.33s1.6-.46,2.92-1.39v3.14c-1.17.75-2.11,1.27-2.82,1.54-.71.27-1.45.41-2.22.41-2.21,0-3.51-.87-3.91-2.61-2.19,1.7-4.52,2.55-7,2.55-1.81,0-3.32-.6-4.53-1.8-1.21-1.2-1.81-2.7-1.81-4.52,0-1.64.59-3.11,1.77-4.4,1.18-1.29,2.86-2.32,5.03-3.07l6.6-2.27v-1.39c0-3.13-1.57-4.7-4.7-4.7-2.81,0-5.55,1.45-8.21,4.36v-5.64c2-2.36,4.88-3.54,8.64-3.54,2.81,0,5.07.74,6.77,2.21.57.47,1.08,1.1,1.53,1.88.45.78.74,1.57.86,2.35.12.78.18,2.27.18,4.46Zm-5.07,10.51v-7.73l-3.46,1.33c-1.76.7-3,1.4-3.72,2.11-.73.71-1.09,1.59-1.09,2.65s.34,1.95,1.03,2.63c.69.68,1.58,1.02,2.68,1.02,1.64,0,3.16-.67,4.56-2.01Z"/>
    <path class="cls-1" d="m517.89,294.15v3.31c2.3-2.55,4.92-3.82,7.84-3.82,1.62,0,3.13.42,4.53,1.26,1.4.84,2.46,1.99,3.19,3.46.73,1.46,1.09,3.78,1.09,6.95v14.9h-5.15v-14.84c0-2.66-.41-4.56-1.22-5.71-.81-1.14-2.17-1.71-4.08-1.71-2.44,0-4.5,1.22-6.2,3.65v18.61h-5.27v-26.05h5.27Z"/>
    <path class="cls-1" d="m559.12,280.64h5.18v39.56h-11.02c-3.85,0-6.92-1.22-9.22-3.65-2.29-2.44-3.44-5.7-3.44-9.8,0-3.83,1.2-6.99,3.61-9.46,2.41-2.47,5.48-3.71,9.22-3.71,1.74,0,3.62.37,5.66,1.1v-14.05Zm0,35.15v-16.51c-1.6-.81-3.23-1.22-4.87-1.22-2.57,0-4.61.84-6.13,2.52-1.52,1.68-2.28,3.95-2.28,6.8,0,2.68.66,4.75,1.98,6.2.79.87,1.63,1.45,2.52,1.76s2.48.45,4.79.45h3.99Z"/>
    <path class="cls-1" d="m586.08,303.16c0-2.78,1.01-4.97,3.04-6.58,2.03-1.62,4.8-2.42,8.31-2.42h10.73v4.02h-5.27c1.02,1.04,1.73,1.98,2.12,2.83s.59,1.82.59,2.92c0,1.36-.39,2.7-1.16,4.01-.77,1.31-1.77,2.32-2.99,3.02-1.22.7-3.21,1.26-5.99,1.67-1.94.28-2.92.95-2.92,2.01,0,.6.36,1.1,1.09,1.49.73.39,2.04.79,3.95,1.2,3.19.7,5.24,1.25,6.16,1.64.92.4,1.74.96,2.48,1.7,1.25,1.25,1.87,2.81,1.87,4.7,0,2.47-1.1,4.45-3.3,5.92-2.2,1.47-5.14,2.21-8.82,2.21s-6.69-.74-8.91-2.22c-2.22-1.48-3.33-3.47-3.33-5.96,0-3.53,2.18-5.81,6.54-6.83-1.74-1.11-2.61-2.22-2.61-3.31,0-.83.37-1.59,1.12-2.27.75-.68,1.75-1.18,3.02-1.5-3.83-1.7-5.75-4.45-5.75-8.24Zm8.47,18.27c-1.74,0-3.16.37-4.26,1.1-1.1.74-1.66,1.68-1.66,2.83,0,2.68,2.42,4.02,7.25,4.02,2.28,0,4.05-.33,5.31-1.01,1.25-.67,1.88-1.62,1.88-2.85s-.79-2.2-2.38-2.96c-1.59-.77-3.63-1.15-6.15-1.15Zm1.22-22.8c-1.4,0-2.59.47-3.57,1.42s-1.47,2.08-1.47,3.4.48,2.45,1.44,3.33c.96.88,2.18,1.32,3.65,1.32s2.67-.45,3.64-1.35c.97-.9,1.46-2.01,1.46-3.36s-.49-2.49-1.47-3.4-2.21-1.36-3.68-1.36Z"/>
    <path class="cls-1" d="m614.83,283.19c.85,0,1.58.29,2.18.88s.91,1.3.91,2.15-.3,1.55-.91,2.15-1.33.91-2.18.91c-.79,0-1.49-.31-2.1-.92-.6-.61-.91-1.33-.91-2.14s.3-1.5.91-2.11c.6-.61,1.3-.92,2.1-.92Zm-2.55,10.96h5.15v26.05h-5.15v-26.05Z"/>
    <path class="cls-1" d="m623.55,303.16c0-2.78,1.01-4.97,3.04-6.58,2.03-1.62,4.8-2.42,8.31-2.42h10.73v4.02h-5.27c1.02,1.04,1.73,1.98,2.12,2.83s.59,1.82.59,2.92c0,1.36-.39,2.7-1.16,4.01-.77,1.31-1.77,2.32-2.99,3.02-1.22.7-3.21,1.26-5.99,1.67-1.94.28-2.92.95-2.92,2.01,0,.6.36,1.1,1.09,1.49.73.39,2.04.79,3.95,1.2,3.19.7,5.24,1.25,6.16,1.64.92.4,1.74.96,2.48,1.7,1.25,1.25,1.87,2.81,1.87,4.7,0,2.47-1.1,4.45-3.3,5.92-2.2,1.47-5.14,2.21-8.82,2.21s-6.69-.74-8.91-2.22c-2.22-1.48-3.33-3.47-3.33-5.96,0-3.53,2.18-5.81,6.54-6.83-1.74-1.11-2.61-2.22-2.61-3.31,0-.83.37-1.59,1.12-2.27.75-.68,1.75-1.18,3.02-1.5-3.83-1.7-5.75-4.45-5.75-8.24Zm8.47,18.27c-1.74,0-3.16.37-4.26,1.1-1.1.74-1.66,1.68-1.66,2.83,0,2.68,2.42,4.02,7.25,4.02,2.28,0,4.05-.33,5.31-1.01,1.25-.67,1.88-1.62,1.88-2.85s-.79-2.2-2.38-2.96c-1.59-.77-3.63-1.15-6.15-1.15Zm1.22-22.8c-1.4,0-2.59.47-3.57,1.42s-1.47,2.08-1.47,3.4.48,2.45,1.44,3.33c.96.88,2.18,1.32,3.65,1.32s2.67-.45,3.64-1.35c.97-.9,1.46-2.01,1.46-3.36s-.49-2.49-1.47-3.4-2.21-1.36-3.68-1.36Z"/>
    <path class="cls-1" d="m648.36,318.34v-5.55c1.45,1.02,2.94,1.85,4.46,2.48,1.52.63,2.8.95,3.84.95s2-.26,2.78-.79,1.16-1.16,1.16-1.9-.25-1.38-.75-1.88-1.58-1.22-3.24-2.17c-3.32-1.85-5.5-3.43-6.53-4.74-1.03-1.31-1.54-2.74-1.54-4.29,0-2,.78-3.63,2.34-4.9,1.56-1.26,3.56-1.9,6.02-1.9s5.16.72,7.84,2.15v5.1c-3.06-1.85-5.56-2.78-7.5-2.78-1,0-1.81.21-2.42.64-.61.43-.92.99-.92,1.69,0,.61.28,1.18.83,1.73s1.53,1.21,2.93,1.98l1.84,1.05c4.34,2.45,6.52,5.17,6.52,8.15,0,2.13-.83,3.88-2.51,5.25-1.67,1.37-3.82,2.05-6.44,2.05-1.55,0-2.93-.17-4.13-.5-1.21-.33-2.73-.94-4.56-1.83Z"/>
  </g>
</svg>